<?xml version="1.0" encoding="UTF-8"?>
<svg id="Capa_1" data-name="Capa 1" xmlns="http://www.w3.org/2000/svg" viewBox="0 0 416.34 448.27">
  <defs>
    <style>
      .cls-1 {
        fill: #eb6a2d;
      }

      .cls-2 {
        fill: #fff;
      }
    </style>
  </defs>
  <path class="cls-1" d="M337.19,447.94l-261.6.33c-21.74.03-41.92-12.54-55.72-27.9C7.13,406.19,0,388.56,0,369.37L.14,85.64c.01-22.97,9.35-43.55,24.98-59.44C42.82,8.21,65.48.05,90.66.04L329.52,0c45.49,0,86.59,34.74,86.63,81.66l.2,230.62-.64,58.98c-2.28,39.5-37,76.63-78.51,76.68Z"/>
  <g>
    <path class="cls-2" d="M120.72,233.02l-5.04,17.87c-.18.65-1.91,2.57-2.34,2.13l-2.13-2.18c-2.97-20.21-4.52-40.38-2.61-60.78,5.43-39.24,35.12-59.25,72.43-66.21,14.57-2.72,28.91-2.54,43.82-2.74l39.97-.53c32.45-2.71,61.19-15.79,85.6-38.06,2.44,7.79.22,14.16-2.08,20.73-13.74,39.33-56.03,63.07-96.3,69.04l-42.16,3.04c-17.18,1.24-33.35,3.94-48.69,11.27-19.59,9.36-34.41,24.88-40.48,46.41Z"/>
    <path class="cls-2" d="M160.05,332.73c-8.59,32.54-48.63,30.65-52.35,26.21-.76-.91-1.09-4.35-.7-5.58l29.93-94.97c9.18-29.12,26.06-46.23,56.07-53.46,9.06-2.19,18.21-2.83,27.54-3.5l39.1-2.84c17.65-2.7,33.55-8.69,48.02-18.89,1.21,1.31,2.03,3.74,1.8,5.79-2.97,26.58-19.82,47.96-44.49,58.09-38.79,15.93-81.43.24-90.79,35.67l-14.13,53.49Z"/>
  </g>
</svg>